<mxfile host="app.diagrams.net" modified="2024-07-19T06:54:48.804Z" agent="Mozilla/5.0 (Macintosh; Intel Mac OS X 10_15_7) AppleWebKit/537.36 (KHTML, like Gecko) Chrome/126.0.0.0 Safari/537.36 Edg/126.0.0.0" etag="R4S5qJ4LE1svI1KcGEZu" version="24.7.1" type="device">
  <diagram name="1" id="nFjHmLXBQdMYMabAr-h3">
    <mxGraphModel dx="1434" dy="844" grid="1" gridSize="10" guides="1" tooltips="1" connect="1" arrows="1" fold="1" page="0" pageScale="1" pageWidth="1654" pageHeight="1169" background="none" math="0" shadow="0">
      <root>
        <mxCell id="0" />
        <mxCell id="1" parent="0" />
        <mxCell id="EoBF23q6mw_MP7eQ5YkC-1" value="" style="rounded=1;whiteSpace=wrap;html=1;fillColor=#30a46c;fontSize=12;strokeColor=none;fontColor=default;align=center;verticalAlign=middle;fontFamily=Helvetica;opacity=30;arcSize=1;fontStyle=0;" parent="1" vertex="1">
          <mxGeometry x="240" y="80" width="520" height="80" as="geometry" />
        </mxCell>
        <mxCell id="EoBF23q6mw_MP7eQ5YkC-2" value="客户端" style="rounded=0;whiteSpace=wrap;html=1;fillColor=#18794E;fontSize=14;strokeColor=none;fontColor=#FFFFFF;fontStyle=1" parent="1" vertex="1">
          <mxGeometry x="120" y="80" width="120" height="80" as="geometry" />
        </mxCell>
        <mxCell id="EoBF23q6mw_MP7eQ5YkC-3" value="网关" style="rounded=0;whiteSpace=wrap;html=1;fillColor=#18794E;fontSize=14;strokeColor=none;fontColor=#FFFFFF;fontStyle=1;align=center;verticalAlign=middle;fontFamily=Helvetica;" parent="1" vertex="1">
          <mxGeometry x="120" y="200" width="120" height="40" as="geometry" />
        </mxCell>
        <mxCell id="EoBF23q6mw_MP7eQ5YkC-4" value="微服务网关" style="rounded=0;whiteSpace=wrap;html=1;fillColor=#b8272c;fontSize=12;strokeColor=none;fontColor=#FFFFFF;fontStyle=0;align=center;verticalAlign=middle;arcSize=1;fontFamily=Helvetica;" parent="1" vertex="1">
          <mxGeometry x="240" y="200" width="520" height="40" as="geometry" />
        </mxCell>
        <mxCell id="EoBF23q6mw_MP7eQ5YkC-5" value="移动端" style="rounded=0;whiteSpace=wrap;html=1;fillColor=#18794E;fontSize=12;strokeColor=none;fontColor=#FFFFFF;align=center;verticalAlign=middle;fontFamily=Helvetica;fontStyle=0" parent="1" vertex="1">
          <mxGeometry x="440" y="100" width="120" height="40" as="geometry" />
        </mxCell>
        <mxCell id="EoBF23q6mw_MP7eQ5YkC-6" value="物联网" style="rounded=0;whiteSpace=wrap;html=1;fillColor=#18794E;fontSize=12;strokeColor=none;fontColor=#FFFFFF;fontStyle=0" parent="1" vertex="1">
          <mxGeometry x="280" y="100" width="120" height="40" as="geometry" />
        </mxCell>
        <mxCell id="EoBF23q6mw_MP7eQ5YkC-8" value="微服务" style="rounded=0;whiteSpace=wrap;html=1;fillColor=#18794E;fontSize=14;strokeColor=none;fontColor=#FFFFFF;fontStyle=1;align=center;verticalAlign=middle;fontFamily=Helvetica;" parent="1" vertex="1">
          <mxGeometry x="120" y="280" width="120" height="120" as="geometry" />
        </mxCell>
        <mxCell id="EoBF23q6mw_MP7eQ5YkC-9" value="" style="rounded=1;whiteSpace=wrap;html=1;fillColor=#30a46c;fontSize=12;strokeColor=none;fontColor=default;fontStyle=0;opacity=30;align=center;verticalAlign=middle;arcSize=1;fontFamily=Helvetica;" parent="1" vertex="1">
          <mxGeometry x="240" y="280" width="520" height="120" as="geometry" />
        </mxCell>
        <mxCell id="EoBF23q6mw_MP7eQ5YkC-10" value="" style="rounded=1;whiteSpace=wrap;html=1;fillColor=#30a46c;fontSize=12;strokeColor=none;fontColor=default;opacity=30;align=center;verticalAlign=middle;arcSize=1;fontFamily=Helvetica;fontStyle=0;" parent="1" vertex="1">
          <mxGeometry x="240" y="440" width="520" height="120" as="geometry" />
        </mxCell>
        <mxCell id="EoBF23q6mw_MP7eQ5YkC-11" value="数据存储" style="rounded=0;whiteSpace=wrap;html=1;fillColor=#18794E;fontSize=14;strokeColor=none;fontColor=#FFFFFF;fontStyle=1;align=center;verticalAlign=middle;fontFamily=Helvetica;" parent="1" vertex="1">
          <mxGeometry x="120" y="440" width="120" height="120" as="geometry" />
        </mxCell>
        <mxCell id="EoBF23q6mw_MP7eQ5YkC-12" value="数据库" style="shape=cylinder;whiteSpace=wrap;html=1;boundedLbl=1;backgroundOutline=1;fillColor=#18794E;fontSize=12;rounded=0;strokeColor=#E6E6E6;fontColor=#FFFFFF;align=center;verticalAlign=middle;fontFamily=Helvetica;fontStyle=0" parent="1" vertex="1">
          <mxGeometry x="310" y="470" width="60" height="60" as="geometry" />
        </mxCell>
        <mxCell id="EoBF23q6mw_MP7eQ5YkC-13" value="缓存" style="shape=cylinder;whiteSpace=wrap;html=1;boundedLbl=1;backgroundOutline=1;fillColor=#18794E;fontSize=12;rounded=0;strokeColor=#E6E6E6;fontColor=#FFFFFF;align=center;verticalAlign=middle;fontFamily=Helvetica;fontStyle=0" parent="1" vertex="1">
          <mxGeometry x="470" y="470" width="60" height="60" as="geometry" />
        </mxCell>
        <mxCell id="EoBF23q6mw_MP7eQ5YkC-14" value="浏览器" style="rounded=0;whiteSpace=wrap;html=1;fillColor=#18794E;fontSize=12;strokeColor=none;fontColor=#FFFFFF;align=center;verticalAlign=middle;fontFamily=Helvetica;fontStyle=0" parent="1" vertex="1">
          <mxGeometry x="600" y="100" width="120" height="40" as="geometry" />
        </mxCell>
        <mxCell id="EoBF23q6mw_MP7eQ5YkC-15" value="" style="rounded=1;whiteSpace=wrap;html=1;fillColor=#30a46c;fontSize=12;strokeColor=none;fontColor=default;opacity=30;align=center;verticalAlign=middle;arcSize=1;fontFamily=Helvetica;fontStyle=0;" parent="1" vertex="1">
          <mxGeometry x="800" y="120" width="160" height="440" as="geometry" />
        </mxCell>
        <mxCell id="EoBF23q6mw_MP7eQ5YkC-16" value="链路追踪" style="rounded=0;whiteSpace=wrap;html=1;fillColor=#18794E;fontSize=12;strokeColor=none;fontColor=#FFFFFF;align=center;verticalAlign=middle;fontFamily=Helvetica;fontStyle=0" parent="1" vertex="1">
          <mxGeometry x="820" y="377" width="120" height="40" as="geometry" />
        </mxCell>
        <mxCell id="EoBF23q6mw_MP7eQ5YkC-17" value="熔断限流" style="rounded=0;whiteSpace=wrap;html=1;fillColor=#18794E;fontSize=12;strokeColor=none;fontColor=#FFFFFF;align=center;verticalAlign=middle;fontFamily=Helvetica;fontStyle=0" parent="1" vertex="1">
          <mxGeometry x="820" y="317" width="120" height="40" as="geometry" />
        </mxCell>
        <mxCell id="EoBF23q6mw_MP7eQ5YkC-18" value="注册中心" style="rounded=0;whiteSpace=wrap;html=1;fillColor=#18794E;fontSize=12;strokeColor=none;fontColor=#FFFFFF;align=center;verticalAlign=middle;fontFamily=Helvetica;fontStyle=0" parent="1" vertex="1">
          <mxGeometry x="820" y="257" width="120" height="40" as="geometry" />
        </mxCell>
        <mxCell id="EoBF23q6mw_MP7eQ5YkC-19" value="配置中心" style="rounded=0;whiteSpace=wrap;html=1;fillColor=#18794E;fontSize=12;strokeColor=none;fontColor=#FFFFFF;align=center;verticalAlign=middle;fontFamily=Helvetica;fontStyle=0" parent="1" vertex="1">
          <mxGeometry x="820" y="197" width="120" height="40" as="geometry" />
        </mxCell>
        <mxCell id="EoBF23q6mw_MP7eQ5YkC-20" value="" style="rounded=0;whiteSpace=wrap;html=1;fillColor=#18794E;fontSize=12;strokeColor=#FFFFFF;fontColor=#FFFFFF;align=center;verticalAlign=middle;fontFamily=Helvetica;fontStyle=0" parent="1" vertex="1">
          <mxGeometry x="280" y="312" width="120" height="50" as="geometry" />
        </mxCell>
        <mxCell id="EoBF23q6mw_MP7eQ5YkC-21" value="" style="rounded=0;whiteSpace=wrap;html=1;fillColor=#18794E;fontSize=12;strokeColor=#FFFFFF;fontColor=#FFFFFF;align=center;verticalAlign=middle;fontFamily=Helvetica;fontStyle=0" parent="1" vertex="1">
          <mxGeometry x="284" y="316" width="120" height="50" as="geometry" />
        </mxCell>
        <mxCell id="EoBF23q6mw_MP7eQ5YkC-22" value="微服务应用&lt;br&gt;Spring Boot Apps" style="rounded=0;whiteSpace=wrap;html=1;fillColor=#18794E;fontSize=12;strokeColor=#FFFFFF;fontColor=#FFFFFF;align=center;verticalAlign=middle;fontFamily=Helvetica;fontStyle=0" parent="1" vertex="1">
          <mxGeometry x="288" y="320" width="120" height="50" as="geometry" />
        </mxCell>
        <mxCell id="EoBF23q6mw_MP7eQ5YkC-23" value="" style="rounded=0;whiteSpace=wrap;html=1;fillColor=#18794E;fontSize=12;strokeColor=#FFFFFF;fontColor=#FFFFFF;align=center;verticalAlign=middle;fontFamily=Helvetica;fontStyle=0" parent="1" vertex="1">
          <mxGeometry x="440" y="312" width="120" height="50" as="geometry" />
        </mxCell>
        <mxCell id="EoBF23q6mw_MP7eQ5YkC-24" value="" style="rounded=0;whiteSpace=wrap;html=1;fillColor=#18794E;fontSize=12;strokeColor=#FFFFFF;fontColor=#FFFFFF;align=center;verticalAlign=middle;fontFamily=Helvetica;fontStyle=0" parent="1" vertex="1">
          <mxGeometry x="444" y="316" width="120" height="50" as="geometry" />
        </mxCell>
        <mxCell id="EoBF23q6mw_MP7eQ5YkC-25" value="微服务应用&lt;br&gt;Spring Boot Apps" style="rounded=0;whiteSpace=wrap;html=1;fillColor=#18794E;fontSize=12;strokeColor=#FFFFFF;fontColor=#FFFFFF;align=center;verticalAlign=middle;fontFamily=Helvetica;fontStyle=0" parent="1" vertex="1">
          <mxGeometry x="448" y="320" width="120" height="50" as="geometry" />
        </mxCell>
        <mxCell id="EoBF23q6mw_MP7eQ5YkC-26" value="" style="rounded=0;whiteSpace=wrap;html=1;fillColor=#18794E;fontSize=12;strokeColor=#FFFFFF;fontColor=#FFFFFF;align=center;verticalAlign=middle;fontFamily=Helvetica;fontStyle=0" parent="1" vertex="1">
          <mxGeometry x="600" y="312" width="120" height="50" as="geometry" />
        </mxCell>
        <mxCell id="EoBF23q6mw_MP7eQ5YkC-27" value="" style="rounded=0;whiteSpace=wrap;html=1;fillColor=#18794E;fontSize=12;strokeColor=#FFFFFF;fontColor=#FFFFFF;align=center;verticalAlign=middle;fontFamily=Helvetica;fontStyle=0" parent="1" vertex="1">
          <mxGeometry x="604" y="316" width="120" height="50" as="geometry" />
        </mxCell>
        <mxCell id="EoBF23q6mw_MP7eQ5YkC-28" value="微服务应用&lt;br&gt;Spring Boot Apps" style="rounded=0;whiteSpace=wrap;html=1;fillColor=#18794E;fontSize=12;strokeColor=#FFFFFF;fontColor=#FFFFFF;align=center;verticalAlign=middle;fontFamily=Helvetica;fontStyle=0" parent="1" vertex="1">
          <mxGeometry x="608" y="320" width="120" height="50" as="geometry" />
        </mxCell>
        <mxCell id="EoBF23q6mw_MP7eQ5YkC-29" value="文件" style="shape=cylinder;whiteSpace=wrap;html=1;boundedLbl=1;backgroundOutline=1;fillColor=#18794E;fontSize=12;rounded=0;strokeColor=#E6E6E6;fontColor=#FFFFFF;align=center;verticalAlign=middle;fontFamily=Helvetica;fontStyle=0" parent="1" vertex="1">
          <mxGeometry x="630" y="470" width="60" height="60" as="geometry" />
        </mxCell>
        <mxCell id="EoBF23q6mw_MP7eQ5YkC-31" value="日志采集" style="rounded=0;whiteSpace=wrap;html=1;fillColor=#18794E;fontSize=12;strokeColor=none;fontColor=#FFFFFF;align=center;verticalAlign=middle;fontFamily=Helvetica;fontStyle=0" parent="1" vertex="1">
          <mxGeometry x="820" y="437" width="120" height="40" as="geometry" />
        </mxCell>
        <mxCell id="EoBF23q6mw_MP7eQ5YkC-34" value="公共服务" style="rounded=0;whiteSpace=wrap;html=1;fillColor=#18794E;fontSize=14;strokeColor=none;fontColor=#FFFFFF;fontStyle=1" parent="1" vertex="1">
          <mxGeometry x="800" y="80" width="160" height="40" as="geometry" />
        </mxCell>
      </root>
    </mxGraphModel>
  </diagram>
</mxfile>
